<svg xmlns="http://www.w3.org/2000/svg" viewBox="0 0 56.28 52.13"><defs><style>.cls-1{fill:#554df0;}</style></defs><g id="Layer_2" data-name="Layer 2"><g id="Layer_1-2" data-name="Layer 1"><path class="cls-1" d="M18,28.68,11.2,24.36c-3.28-2.09-6.59-4.15-9.83-6.31A2.57,2.57,0,0,1,.31,16.31C.13,11.82.06,7.33,0,2.84,0,1,.65.28,2.47.26,13.06.16,23.64,0,34.22,0A22.21,22.21,0,0,1,48.8,5c4.82,4,6.38,9.31,5.9,15.39A15.92,15.92,0,0,1,49.22,31.6c-2.33,2-2.3,2.07-.75,4.9q3.83,7,7.64,13.91l0,0A1.14,1.14,0,0,1,54.52,52l-4.14-2.61c-6-3.8-11.93-7.64-17.93-11.4a2.47,2.47,0,0,1-1.31-2.43c.07-2.95,0-5.89,0-8.84a2.39,2.39,0,0,0-2.34-2.37c-2.78,0-5.56,0-8.33,0A2.53,2.53,0,0,0,18,26.81Zm6.64-6.53a7.49,7.49,0,0,0,7.73-7.42,7.58,7.58,0,0,0-15.15,0A7.47,7.47,0,0,0,24.62,22.15Z"/></g></g></svg>