<svg xmlns="http://www.w3.org/2000/svg" viewBox="0 0 31.94 23.47"><g id="Layer_2" data-name="Layer 2"><g id="trusted"><path d="M10.92,12.13a1,1,0,0,0,0-2h-4a1,1,0,0,0,0,2Z"/><path d="M4.1,14.47v4.15a1,1,0,0,0,1,1H21.9a1,1,0,0,0,1-1V10.37a1,1,0,0,0-1-1H14.26a1,1,0,0,0-1,1v3.1H5.1A1,1,0,0,0,4.1,14.47Zm2,1h8.16a1,1,0,0,0,1-1v-3.1H20.9v6.25H6.1Z"/><path d="M31.94,5.37a5.37,5.37,0,1,0-10.73,0s0,.06,0,.1H3.05A3.06,3.06,0,0,0,0,8.52V20.41a3.06,3.06,0,0,0,3.05,3.06H19.18a1,1,0,0,0,0-2H3.05a1.05,1.05,0,0,1-1-1.06V8.52a1,1,0,0,1,1-1H21.64a5.36,5.36,0,0,0,3.36,3v9.94A1.05,1.05,0,0,1,24,21.47H22.9a1,1,0,0,0,0,2H24A3.06,3.06,0,0,0,27,20.41V10.69A5.35,5.35,0,0,0,31.94,5.37ZM26.58,8.73a3.37,3.37,0,1,1,3.36-3.36A3.37,3.37,0,0,1,26.58,8.73Z"/><path d="M26.37,7.69l.15,0a.72.72,0,0,0,.5-.36l1.56-2.73a.75.75,0,1,0-1.31-.75l-1.14,2-.87-.65a.74.74,0,0,0-1.06.15.76.76,0,0,0,.15,1.06l1.56,1.17A.75.75,0,0,0,26.37,7.69Z"/></g></g></svg>