<svg xmlns="http://www.w3.org/2000/svg" width="50" height="50" viewBox="0 0 100 100" fill="none"><rect width="100" height="100" fill="#ffffff" rx="50" ry="50" /><path d="M68.84 52c0 1.10457-.89543 2-2 2s-2-.89543-2-2c0-7.64362-6.19638-13.84-13.84-13.84-1.10457 0-2-.89543-2-2s.89543-2 2-2c9.85276 0 17.84 7.98724 17.84 17.84zm-8.16 0c0 1.10457-.89543 2-2 2s-2-.89543-2-2c0-3.136977-2.543023-5.68-5.68-5.68-1.10457 0-2-.89543-2-2s.89543-2 2-2c5.346116 0 9.68 4.333884 9.68 9.68zM77 52c0 1.10457-.89543 2-2 2s-2-.89543-2-2c0-12.150264-9.849736-22-22-22-1.10457 0-2-.89543-2-2s.89543-2 2-2c14.359403 0 26 11.640597 26 26z" fill="#f5a623" /> <path d="M75.697406 70.312602c-.073051.717497-.301202 1.639837-.684454 2.76702-.383252 1.127181-.754755 2.007115-1.114508 2.6398-.692952 1.268249-3.265498 3.156391-6.099147 4.353799-2.63423 1.084688-5.172912 1.494618-7.616045 1.22979-.717006-.07772-1.40936-.199787-2.077064-.3662-.667703-.166412-1.414272-.415257-2.239707-.746537-.825435-.33128-1.43652-.592307-1.833253-.783081-.396734-.190775-1.105925-.543038-2.127573-1.05679-1.021647-.513752-1.647914-.823442-1.878799-.929071-2.507772-1.212188-4.71912-2.566882-6.634048-4.064082-3.185399-2.467799-6.405874-5.711834-9.661424-9.732104-3.255551-4.02027-5.759122-7.844843-7.510712-11.473718-1.066347-2.184366-1.931672-4.62905-2.595975-7.334048-.055317-.247801-.228032-.92477-.518145-2.030908-.290113-1.106137-.48723-1.87307-.59135-2.300799-.10412-.427728-.23239-1.07973-.384813-1.956004s-.24061-1.658267-.264563-2.345978c-.023952-.687711.000597-1.390315.073648-2.107812.248916-2.444806 1.17771-4.842782 2.786382-7.193929 1.76039-2.522771 4.142134-4.646534 5.526742-5.06066.693656-.220349 1.6316-.400785 2.813834-.541307 1.182233-.140523 2.131852-.171923 2.848859-.094202.371781.0403.646558.110385.824332.210257.46177.211258 1.062686 1.297351 1.802747 3.258278.240707.53657.565993 1.297246.975857 2.282027.409864.984782.788687 1.87888 1.13647 2.682295.347783.803416.687023 1.558887 1.01772 2.266415.068845.114931.267388.472293.59563 1.072086.32824.599792.56569 1.102425.71235 1.507897.14666.405473.20105.794227.163171 1.166262-.054112.53148-.500172 1.15481-1.33818 1.86999-.838008.71518-1.735642 1.356729-2.692901 1.924646-.95726.567918-1.042942.527579-1.875539 1.189611s-1.273246 1.232214-1.321947 1.710546c-.02435.239165.011601.545319.107855.91846.096253.373142.181383.657759.255389.853852.074006.196092.227429.53513.46027 1.017112.23284.481983.359833.750987.380977.807014 1.647573 3.859404 3.640018 7.23228 5.977337 10.118629 2.337318 2.886348 5.222237 5.536514 8.654754 7.950498.050406.032331.287129.212478.710169.54044.42304.327962.72277.548523.89919.661682.176422.113159.43712.255603.782095.427334.344975.17173.636964.270549.875966.296456.478004.051814 1.127342-.260658 1.948014-.937417.820672-.676758.799029-.768956 1.553561-1.58722.754533-.818264 1.56869-1.562897 2.442474-2.233898.873784-.671001 1.576234-.977716 2.10735-.920145.37178.0403.74073.174328 1.10685.402085.36612.227757.8084.564521 1.32684 1.010294.518441.445772.826715.714276.924821.805513.62331.470573 1.291741.959471 2.005292 1.466694.71355.507222 1.509349 1.06366 2.387395 1.669316.878046.605655 1.554469 1.081986 2.029267 1.428992 1.76421 1.131588 2.70163 1.945184 2.812265 2.440786.060728.194654.072153.477998.034274.850034z" fill="#127bff" /></svg>